<svg aria-hidden="true" style="position: absolute; width: 0; height: 0; overflow: hidden;" version="1.1" xmlns="http://www.w3.org/2000/svg" xmlns:xlink="http://www.w3.org/1999/xlink">
<defs>
<symbol id="icon-game-controller" viewBox="0 0 32 32">
<path d="M31.982 14.916c0-3.814-3.102-6.916-6.916-6.916-1.678 0-3.218 0.602-4.418 1.6h-3.601v-6.667c0-1.029 0.837-1.867 1.867-1.867s1.867 0.837 1.867 1.867v1.333c0 1.47 1.196 2.667 2.667 2.667s2.667-1.196 2.667-2.667v-4.267h-1.067v4.267c0 0.882-0.718 1.6-1.6 1.6s-1.6-0.718-1.6-1.6v-1.333c0-1.617-1.316-2.933-2.933-2.933s-2.933 1.316-2.933 2.933v6.667h-4.675c-1.193-0.977-2.716-1.565-4.374-1.565-3.813 0-6.916 3.102-6.916 6.916 0 1.322 0.38 2.555 1.026 3.606l-0.63 9.199c0 2.34 1.904 4.244 4.244 4.244 1.889 0 3.522-1.215 4.060-3.011l1.826-5.533c0.553 0.961 1.588 1.61 2.773 1.61 1.113 0 2.093-0.571 2.667-1.435 0.574 0.864 1.554 1.435 2.667 1.435 1.242 0 2.319-0.713 2.849-1.75l1.867 5.659c0.543 1.81 2.177 3.025 4.066 3.025 2.34 0 4.244-1.903 4.243-4.28l-0.641-9.322c0.6-1.025 0.95-2.212 0.95-3.483zM10.649 15.619c0 0.504-0.411 0.915-0.915 0.915h-1.219v1.219c0 0.504-0.411 0.915-0.915 0.915h-1.371c-0.504 0-0.915-0.411-0.915-0.915v-1.219h-1.219c-0.504 0-0.915-0.411-0.915-0.915v-1.371c0-0.504 0.41-0.915 0.915-0.915h1.219v-1.219c0-0.504 0.411-0.915 0.915-0.915h1.371c0.504 0 0.915 0.411 0.915 0.915v1.219h1.219c0.504 0 0.915 0.411 0.915 0.915v1.371zM25.049 9.867c1.029 0 1.867 0.837 1.867 1.867s-0.837 1.867-1.867 1.867-1.867-0.837-1.867-1.867 0.837-1.867 1.867-1.867zM15.406 22.294l-0.001 0.003c-0.2 0.971-1.061 1.702-2.090 1.702-1.177 0-2.133-0.957-2.133-2.133 0-0.526 0.198-1.002 0.515-1.374l0.128-0.129c0.304-0.305 0.678-0.507 1.079-0.589 0.133-0.026 0.27-0.042 0.411-0.042 0.147 0 0.29 0.015 0.428 0.043 0.010 0.002 0.018 0.006 0.027 0.008 0.129 0.028 0.254 0.066 0.373 0.116 0.005 0.002 0.009 0.005 0.013 0.007 0.122 0.052 0.238 0.115 0.347 0.188 0.016 0.011 0.029 0.025 0.045 0.036 0.093 0.067 0.183 0.138 0.265 0.218 0.042 0.042 0.077 0.091 0.115 0.136 0.047 0.054 0.096 0.107 0.137 0.166 0.065 0.094 0.119 0.195 0.169 0.299 0.007 0.015 0.017 0.028 0.023 0.043 0.109 0.247 0.174 0.521 0.183 0.809l0.004 0.111c-0.004 0.13-0.014 0.258-0.039 0.38zM15.449 13.333c-0.295 0-0.533-0.238-0.533-0.533s0.238-0.533 0.533-0.533h1.6c0.295 0 0.533 0.238 0.533 0.533s-0.238 0.533-0.533 0.533h-1.6zM18.649 24c-1.029 0-1.89-0.732-2.090-1.702l-0.001-0.003c-0.025-0.123-0.036-0.251-0.038-0.38l0.004-0.114c0.009-0.289 0.074-0.561 0.184-0.808 0.006-0.014 0.015-0.026 0.021-0.039 0.050-0.106 0.106-0.207 0.171-0.303 0.038-0.054 0.083-0.101 0.125-0.151s0.081-0.103 0.127-0.15c0.076-0.075 0.16-0.14 0.246-0.203 0.021-0.016 0.040-0.035 0.062-0.050 0.103-0.069 0.214-0.128 0.329-0.179 0.011-0.005 0.020-0.012 0.030-0.016 0.116-0.049 0.237-0.085 0.363-0.113 0.013-0.003 0.025-0.009 0.037-0.011 0.138-0.029 0.281-0.044 0.427-0.044 0.13 0 0.255 0.016 0.379 0.038 0.041 0.007 0.081 0.017 0.121 0.027 0.084 0.020 0.165 0.046 0.245 0.076 0.041 0.015 0.082 0.028 0.121 0.046 0.103 0.046 0.203 0.1 0.297 0.162 0.041 0.027 0.078 0.059 0.118 0.089 0.056 0.042 0.11 0.086 0.162 0.133 0.043 0.040 0.084 0.082 0.124 0.125 0.041 0.044 0.078 0.091 0.115 0.139 0.038 0.050 0.078 0.098 0.111 0.15 0.030 0.046 0.053 0.097 0.079 0.146 0.024 0.045 0.051 0.087 0.072 0.133l0.032 0.071c0.1 0.247 0.158 0.515 0.158 0.797 0 1.177-0.957 2.134-2.133 2.134zM21.582 16.533c-1.029 0-1.867-0.837-1.867-1.867s0.837-1.867 1.867-1.867 1.867 0.837 1.867 1.867-0.838 1.867-1.867 1.867zM25.049 19.467c-1.029 0-1.867-0.837-1.867-1.867s0.837-1.867 1.867-1.867 1.867 0.837 1.867 1.867-0.838 1.867-1.867 1.867zM28.516 16.533c-1.029 0-1.867-0.837-1.867-1.867s0.837-1.867 1.867-1.867 1.867 0.837 1.867 1.867-0.838 1.867-1.867 1.867z"></path>
<path d="M29.316 14.667c0 0.442-0.358 0.8-0.8 0.8s-0.8-0.358-0.8-0.8c0-0.442 0.358-0.8 0.8-0.8s0.8 0.358 0.8 0.8z"></path>
<path d="M25.849 11.733c0 0.442-0.358 0.8-0.8 0.8s-0.8-0.358-0.8-0.8c0-0.442 0.358-0.8 0.8-0.8s0.8 0.358 0.8 0.8z"></path>
<path d="M22.382 14.667c0 0.442-0.358 0.8-0.8 0.8s-0.8-0.358-0.8-0.8c0-0.442 0.358-0.8 0.8-0.8s0.8 0.358 0.8 0.8z"></path>
<path d="M25.849 17.6c0 0.442-0.358 0.8-0.8 0.8s-0.8-0.358-0.8-0.8c0-0.442 0.358-0.8 0.8-0.8s0.8 0.358 0.8 0.8z"></path>
<path d="M7.449 12.267h-1.067v2.133h-2.133v1.067h2.133v2.133h1.067v-2.133h2.133v-1.067h-2.133z"></path>
</symbol>
<symbol id="icon-tic-tac-toe" viewBox="0 0 32 32">
<path d="M30.355 23.22c0.617 0 1.118-0.501 1.118-1.118s-0.501-1.118-1.118-1.118h-7.079v-10.061h7.079c0.617 0 1.118-0.501 1.118-1.118s-0.501-1.118-1.118-1.118h-7.079v-7.079c0-0.617-0.501-1.118-1.118-1.118s-1.118 0.5-1.118 1.118v7.079h-10.061v-7.080c0-0.617-0.501-1.118-1.118-1.118s-1.118 0.501-1.118 1.118v7.080h-7.080c-0.617 0-1.118 0.501-1.118 1.118s0.501 1.118 1.118 1.118h7.080v10.061h-7.080c-0.617 0-1.118 0.501-1.118 1.118s0.501 1.118 1.118 1.118h7.080v7.079c0 0.617 0.5 1.118 1.118 1.118s1.118-0.5 1.118-1.118v-7.079h10.061v7.080c0 0.617 0.5 1.118 1.118 1.118s1.118-0.501 1.118-1.118v-7.080h7.079zM10.979 20.984v-10.061h10.061v10.061h-10.061z"></path>
<path d="M1.941 7.475l1.771-1.772 1.771 1.772c0.218 0.218 0.504 0.327 0.79 0.327s0.572-0.109 0.79-0.327c0.437-0.436 0.437-1.144 0-1.581l-1.771-1.772 1.771-1.772c0.437-0.437 0.437-1.145 0-1.581s-1.144-0.437-1.581 0l-1.771 1.772-1.771-1.772c-0.437-0.437-1.144-0.437-1.581 0s-0.437 1.144 0 1.581l1.771 1.772-1.771 1.772c-0.437 0.437-0.437 1.145 0 1.581 0.218 0.218 0.504 0.327 0.79 0.327s0.572-0.109 0.79-0.327z"></path>
<path d="M17.59 15.954l1.771-1.772c0.437-0.437 0.437-1.145 0-1.581s-1.144-0.437-1.581 0l-1.771 1.772-1.771-1.772c-0.437-0.437-1.144-0.437-1.581 0s-0.437 1.144 0 1.581l1.771 1.772-1.771 1.772c-0.437 0.437-0.437 1.145 0 1.581 0.218 0.218 0.504 0.328 0.79 0.328s0.572-0.109 0.79-0.328l1.771-1.772 1.771 1.772c0.218 0.218 0.504 0.328 0.79 0.328s0.572-0.109 0.79-0.328c0.437-0.436 0.437-1.144 0-1.581l-1.771-1.772z"></path>
<path d="M16.009 8.245c2.273 0 4.123-1.849 4.123-4.123s-1.849-4.123-4.123-4.123c-2.273 0-4.123 1.849-4.123 4.123s1.849 4.123 4.123 4.123zM16.009 2.236c1.040 0 1.887 0.847 1.887 1.887s-0.847 1.887-1.887 1.887c-1.040 0-1.887-0.847-1.887-1.887s0.847-1.887 1.887-1.887z"></path>
<path d="M27.845 23.755c-2.273 0-4.123 1.849-4.123 4.123s1.849 4.123 4.123 4.123c2.273 0 4.123-1.849 4.123-4.123s-1.849-4.123-4.123-4.123zM27.845 29.764c-1.040 0-1.887-0.847-1.887-1.887s0.847-1.887 1.887-1.887c1.040 0 1.887 0.847 1.887 1.887s-0.847 1.887-1.887 1.887z"></path>
</symbol>
<symbol id="icon-puzzle" viewBox="0 0 26 32">
<path d="M16.077 21.965c-0.358 0.87-1.331 1.331-2.253 1.075-0.307-0.102-0.563-0.205-0.768-0.41l-0.41 1.741c-0.102 0.461-0.563 0.717-1.024 0.614l-2.56-0.614c0.256-0.307 0.461-0.768 0.461-1.229 0-0.768-0.512-1.485-1.229-1.741-1.075-0.41-2.202 0.256-2.509 1.331-0.051 0.307-0.051 0.563 0 0.87l-2.56-0.614c-0.461-0.102-0.717-0.563-0.614-1.024l0.461-1.997c-0.256 0.102-0.563 0.154-0.87 0.102-1.075-0.154-1.843-1.229-1.587-2.253 0.205-1.024 1.229-1.69 2.304-1.434 0.358 0.102 0.717 0.307 0.973 0.563l0.461-1.997c0.102-0.461 0.563-0.717 1.024-0.614l2.765 0.666c-0.256-0.512-0.256-1.126 0.051-1.69 0.307-0.614 0.973-0.973 1.69-0.973 1.229 0.051 2.099 1.178 1.792 2.304-0.102 0.41-0.358 0.768-0.666 1.024l2.765 0.666c0.461 0.102 0.717 0.563 0.614 1.024l-0.563 2.099c0.307-0.102 0.614-0.102 0.922 0 1.126 0.256 1.741 1.434 1.331 2.509z"></path>
<path d="M19.507 16.179c-0.922 0.102-1.843-0.512-2.048-1.434-0.051-0.307-0.051-0.563 0-0.87l-1.741 0.512c-0.461 0.102-0.922-0.102-1.024-0.563l-0.717-2.56c0.41 0.051 0.87 0 1.28-0.205 0.666-0.358 1.024-1.178 0.922-1.946-0.205-1.126-1.331-1.792-2.355-1.485-0.307 0.102-0.563 0.205-0.768 0.41l-0.717-2.56c-0.102-0.461 0.102-0.922 0.563-1.024l1.946-0.563c-0.205-0.205-0.41-0.461-0.512-0.717-0.41-0.973 0.154-2.202 1.178-2.509s2.099 0.256 2.355 1.28c0.102 0.358 0.102 0.768 0 1.075l1.997-0.563c0.461-0.102 0.922 0.102 1.024 0.563l0.768 2.765c0.307-0.461 0.87-0.768 1.485-0.768 0.666 0 1.331 0.358 1.69 0.973 0.614 1.126 0 2.406-1.126 2.714-0.41 0.102-0.819 0.102-1.229-0.051l0.768 2.765c0.102 0.461-0.102 0.922-0.563 1.024l-2.099 0.614c0.205 0.205 0.358 0.461 0.461 0.768 0.358 1.024-0.358 2.202-1.536 2.355z"></path>
</symbol>
<symbol id="icon-sword" viewBox="0 0 32 32">
<path d="M32 0h-4.961l-16.838 16.838-2.288-2.288-0.755-2.265c-0.123-0.372-0.481-0.598-0.87-0.55s-0.682 0.354-0.712 0.745l-0.321 4.176 3.358 3.358-5.811 5.811h-1.526c-0.704 0-1.277 0.573-1.277 1.277v3.622c0 0.704 0.573 1.277 1.277 1.277h3.622c0.704 0 1.277-0.573 1.277-1.277v-1.921l5.614-5.614 3.38 3.38 3.855-0.643c0.385-0.063 0.664-0.38 0.679-0.769s-0.237-0.727-0.615-0.822l-1.851-0.463-2.27-2.27 17.032-16.837v-4.766zM5.053 30.723c0 0.085-0.069 0.154-0.154 0.154h-3.622c-0.085 0-0.154-0.069-0.154-0.154v-3.622c0-0.085 0.069-0.154 0.154-0.154h3.622c0.085 0 0.154 0.069 0.154 0.154v3.622zM6.175 27.215v-0.114c0-0.704-0.573-1.277-1.277-1.277h-0.509l5.018-5.018 1.588 1.588-4.82 4.821zM17.371 25.064l-1.816 0.303-9.14-9.14 0.164-2.131 0.354 1.061 9.731 9.731 0.707 0.176zM14.174 20.809l-3.178-3.178 16.508-16.508h2.382l-16.508 16.509c-0.22 0.22-0.22 0.574 0 0.794 0.109 0.109 0.253 0.165 0.397 0.165s0.287-0.055 0.397-0.165l16.706-16.706v2.578l-16.703 16.512z"></path>
</symbol>
<symbol id="icon-close" viewBox="0 0 32 32">
<path d="M32 3.223l-3.223-3.223-12.777 12.777-12.777-12.777-3.223 3.223 12.777 12.777-12.777 12.777 3.223 3.223 12.777-12.777 12.777 12.777 3.223-3.223-12.777-12.777 12.777-12.777z"></path>
</symbol>
</defs>
</svg>
